<?xml version="1.0" encoding="utf-8"?>
<!-- Generator: Adobe Illustrator 19.0.0, SVG Export Plug-In . SVG Version: 6.00 Build 0)  -->
<svg version="1.1" id="Calque_1" xmlns="http://www.w3.org/2000/svg" xmlns:xlink="http://www.w3.org/1999/xlink" x="0px" y="0px"
	 viewBox="190 56.6 800 860.3" style="enable-background:new 190 56.6 800 860.3;" xml:space="preserve">
<style type="text/css">
	.st0{fill:#FFFF66;}
	.st1{fill:none;}
	.st2{fill:#FFFFFF;}
	.st3{font-family:'SegoeWP-Light';}
	.st4{font-size:200px;}
</style>
<polygon class="st0" points="774.7,206.6 688.3,56.7 611.1,56.7 611.1,79.6 611.1,102.6 661.8,102.6 721.7,206.6 611.1,206.6 
	611.1,252.5 722.2,252.5 661.6,357.4 611.1,357.3 611.1,380.3 611.1,403.2 688.1,403.3 775.3,252.5 788.2,230.1 "/>
<polygon class="st0" points="488.2,56.6 401.5,206.6 388.1,229.8 401.2,252.5 488,403.1 565.2,403.2 565.2,380.3 565.2,357.3 
	514.5,357.3 454.1,252.5 565.2,252.5 565.2,206.6 454.5,206.6 514.7,102.5 565.2,102.5 565.2,79.6 565.2,56.6 "/>
<g>
	<path class="st0" d="M387.6,459.5c3,4.2,4.5,9.3,4.5,15.1c0,6.1-1.5,10.9-4.6,14.6c-1.7,2.1-4.2,3.9-7.6,5.6
		c5.1,1.8,8.9,4.8,11.4,8.7c2.6,4,3.9,8.8,3.9,14.5c0,5.9-1.5,11.1-4.4,15.8c-1.9,3.1-4.2,5.7-7,7.8c-3.2,2.4-6.9,4.1-11.2,5
		c-4.3,0.9-9,1.3-14,1.3h-44.7v-99.1H362C374,449.1,382.6,452.7,387.6,459.5z M333.8,466.2v21.9h24.1c4.3,0,7.8-0.8,10.5-2.5
		c2.7-1.6,4-4.5,4-8.7c0-4.6-1.8-7.7-5.3-9.1c-3.1-1-7-1.5-11.7-1.5h-21.6V466.2z M333.8,504.4v26.4h24.1c4.3,0,7.6-0.6,10-1.7
		c4.3-2.2,6.5-6.3,6.5-12.4c0-5.2-2.1-8.7-6.3-10.6c-2.3-1.1-5.6-1.6-9.9-1.7H333.8z"/>
	<path class="st0" d="M486.5,466.5H434v21h48.1v17.2H434v25.5h54.9V548h-75.1v-99.1h72.7V466.5z"/>
	<path class="st0" d="M578.3,466.5h-52.4v21H574v17.2h-48.1v25.5h54.9V548h-75.1v-99.1h72.7L578.3,466.5L578.3,466.5z"/>
	<path class="st0" d="M597.2,449h20.4v40.8l38.3-40.8h26.8L642,489.8l42.8,58.3h-26.6l-30.5-43.3l-10,10.1V548h-20.4L597.2,449
		L597.2,449z"/>
	<path class="st0" d="M769.6,466.5h-52.4v21h48.1v17.2h-48.1v25.5H772V548h-75.1v-99.1h72.7V466.5z"/>
	<path class="st0" d="M861.4,466.5H809v21h48.1v17.2H809v25.5h54.9V548h-75.1v-99.1h72.7v17.6H861.4z"/>
</g>
<rect x="190" y="705.6" class="st1" width="800" height="171"/>
<text transform="matrix(1 0 0 1 197.0316 853.6069)" class="st2 st3 st4">Live Feed</text>
</svg>
